<?xml version="1.0" encoding="UTF-8"?>
<svg id="Laag_2" data-name="Laag 2" xmlns="http://www.w3.org/2000/svg" viewBox="0 0 100.62 73.43">
  <defs>
    <style>
      .cls-1 {
        fill: #ffd700;
        stroke-width: 0px;
      }
    </style>
  </defs>
  <g id="OBJECTS">
    <g>
      <path class="cls-1" d="M100.62,26.41l-6.41,37.69c-11.4-4.1-26.87-6.62-43.9-6.62s-32.48,2.51-43.89,6.61L0,26.41l15.2,14.03-4.03,6.4,2.84,2.54c2.96,2.64,7.58,2.03,9.75-1.3l.51-.78c1.29-1.96,1.41-4.46.33-6.54l-3.62-6.97,5.44-10.27,7.84,9.27-1.92,6.6c-.71,2.44.07,5.07,1.99,6.73,3.5,3.02,8.95,1.51,10.4-2.88l2.22-6.71-10.81-21.92L50.31,0l14.18,14.61-10.81,21.92,2.22,6.71c1.45,4.39,6.89,5.9,10.4,2.88,1.92-1.66,2.7-4.29,1.99-6.73l-1.92-6.6,7.84-9.27,5.44,10.27-3.62,6.97c-1.08,2.08-.96,4.58.32,6.54l.51.78c2.18,3.33,6.79,3.94,9.76,1.3l2.84-2.54-4.03-6.4,15.19-14.03Z"/>
      <path class="cls-1" d="M93.69,67.33l-.99,6.1c-11.24-3.79-26.1-6.1-42.39-6.1s-30.85,2.26-42.05,5.99l-1.2-6.03c11.34-3.97,26.54-6.39,43.25-6.39s32.03,2.44,43.38,6.43Z"/>
    </g>
  </g>
</svg>  